<svg width="139" height="129" viewBox="0 0 139 129" fill="none" xmlns="http://www.w3.org/2000/svg">
<path d="M63.6074 71.8104L76.6107 41.4416L70.7592 29.5629H56.8891V21.5004H75.8521L79.8073 29.5629H117.842L112.424 48.3754H89.0721L92.7022 55.7391C95.8446 54.4491 99.3121 53.7504 102.942 53.7504C117.896 53.7504 130.032 65.7904 130.032 80.6254C130.032 95.4604 117.896 107.5 102.942 107.5C87.9885 107.5 75.8521 95.4604 75.8521 80.6254C75.8521 72.2941 79.6989 64.8229 85.7129 59.9316L81.2702 51.0629L66.3706 86.0004H53.6383C51.146 98.2554 40.2016 107.5 27.0901 107.5C12.1363 107.5 0 95.4604 0 80.6254C0 65.7904 12.1363 53.7504 27.0901 53.7504C41.1227 53.7504 52.6631 64.3391 54.1801 77.9379H57.3226L44.9695 48.3754H40.6351C38.4137 48.3754 36.5716 46.5479 36.5716 44.3441C36.5716 42.1404 38.4137 40.3129 40.6351 40.3129H55.5346C57.756 40.3129 59.5981 42.1404 59.5981 44.3441C59.5981 46.5479 57.756 48.3754 55.5346 48.3754H54.0176L63.6074 71.8104ZM27.0901 61.8129C16.6333 61.8129 8.12702 70.2516 8.12702 80.6254C8.12702 90.9991 16.6333 99.4379 27.0901 99.4379C35.7047 99.4379 42.9648 93.7941 45.2946 86.0004H21.672V77.9379H45.8906C44.536 68.8004 36.6258 61.8129 27.0901 61.8129ZM102.942 61.8129C100.612 61.8129 98.3369 62.2429 96.2781 62.9954L106.735 84.2804L99.4205 87.8279L89.3972 67.4566C86.038 70.8429 83.9792 75.5191 83.9792 80.6254C83.9792 90.9991 92.4854 99.4379 102.942 99.4379C113.399 99.4379 121.905 90.9991 121.905 80.6254C121.905 70.2516 113.399 61.8129 102.942 61.8129Z" fill="#F48E28"/>
</svg>
