<svg width="117" height="117" viewBox="0 0 117 117" fill="none" xmlns="http://www.w3.org/2000/svg">
<path d="M58.5 24.3754C31.6875 24.3754 9.75 46.3129 9.75 73.1254V102.375H107.25V73.1254C107.25 46.3129 85.3125 24.3754 58.5 24.3754ZM58.5 34.1254C70.8337 34.1254 81.8025 39.8291 88.9687 48.7504H28.08C35.1975 39.8291 46.1662 34.1254 58.5 34.1254ZM39 92.6254H19.5V73.1254C19.5 67.9579 20.5237 63.0341 22.3275 58.5004H39V92.6254ZM68.25 92.6254H48.75V58.5004H68.25V92.6254ZM97.5 92.6254H78V58.5004H94.6725C96.4762 63.0341 97.5 67.9579 97.5 73.1254V92.6254Z" fill="#F48E28"/>
</svg>
