<svg width="19" height="22" viewBox="0 0 19 22" fill="none" xmlns="http://www.w3.org/2000/svg">
<path d="M18.6492 14.7734C18.6183 14.3811 18.4682 14.008 18.2193 13.7049C17.9705 13.4018 17.635 13.1834 17.2587 13.0796C17.2576 13.0792 17.2561 13.0788 17.255 13.0785C17.0629 13.0289 16.8841 12.9372 16.7314 12.8098C16.5786 12.6824 16.4557 12.5225 16.3714 12.3416C15.5869 10.6504 13.8223 8.39368 9.95592 8.13396C9.69568 8.11668 9.43461 8.11681 9.17439 8.13433C5.31947 8.39331 3.55418 10.638 2.76672 12.3274C2.67253 12.5271 2.5308 12.7002 2.35416 12.8312C2.17752 12.9623 1.97147 13.0472 1.75437 13.0785C1.69825 13.0854 1.64278 13.0969 1.58849 13.1129C1.16347 13.2571 0.803101 13.5489 0.571762 13.9363C0.340422 14.3237 0.253176 14.7814 0.325608 15.2277C0.398041 15.674 0.625433 16.0798 0.96717 16.3726C1.30891 16.6654 1.74273 16.8262 2.19115 16.8261C2.23197 16.8261 2.27205 16.8247 2.31176 16.822C2.31839 16.8753 2.34226 16.9249 2.37967 16.9631C3.39646 17.9942 3.68183 19.572 3.71969 19.8104C3.74418 20.3261 4.35092 20.7456 5.52431 21.057C6.58453 21.3384 7.98838 21.4933 9.47683 21.4933C10.9582 21.4933 12.3573 21.3395 13.4156 21.0607C14.5794 20.7538 15.1902 20.3414 15.2325 19.8339C15.2324 19.8333 15.2325 19.8326 15.2329 19.8321C15.2355 19.8145 15.4945 18.0604 16.5766 16.9631C16.614 16.9249 16.6379 16.8753 16.6445 16.822C16.6842 16.8247 16.7239 16.8261 16.7644 16.8261C17.0249 16.8262 17.2825 16.7719 17.5212 16.6668C17.7599 16.5616 17.9745 16.4078 18.1515 16.2151C18.3285 16.0223 18.464 15.7948 18.5497 15.5467C18.6353 15.2986 18.6692 15.0353 18.6492 14.7734ZM11.6989 10.1762C11.735 10.2168 11.7536 10.2702 11.7507 10.3247C11.7478 10.3791 11.7236 10.4302 11.6834 10.4666L10.8143 11.2537C10.774 11.2901 10.7209 11.309 10.6669 11.306C10.6128 11.3031 10.5621 11.2786 10.5259 11.2379C10.4897 11.1973 10.4711 11.1438 10.474 11.0893C10.4769 11.0348 10.5012 10.9836 10.5415 10.9472L11.4106 10.1605C11.4509 10.124 11.5039 10.1052 11.558 10.1081C11.6121 10.1111 11.6628 10.1356 11.6989 10.1762ZM10.494 9.33453C10.5139 9.31647 10.5372 9.30255 10.5625 9.29355C10.5877 9.28456 10.6145 9.28067 10.6413 9.28211C10.668 9.28356 10.6942 9.2903 10.7184 9.30196C10.7426 9.31362 10.7642 9.32996 10.7822 9.35006C10.8001 9.37017 10.8139 9.39363 10.8228 9.41911C10.8317 9.44459 10.8356 9.4716 10.8341 9.49858C10.8327 9.52557 10.826 9.552 10.8145 9.57638C10.8029 9.60076 10.7867 9.6226 10.7668 9.64066L8.05963 12.0912C8.02234 12.1253 7.97377 12.1441 7.92344 12.144C7.88214 12.144 7.8418 12.1314 7.80776 12.1078C7.77372 12.0842 7.74757 12.0508 7.73278 12.0119C7.71798 11.973 7.71523 11.9305 7.72489 11.89C7.73455 11.8495 7.75616 11.8129 7.78687 11.7851L10.494 9.33453ZM10.1522 11.8401L9.64754 12.3045C9.6278 12.323 9.60462 12.3374 9.57934 12.3469C9.55406 12.3563 9.52718 12.3606 9.50025 12.3595C9.47332 12.3584 9.44687 12.3519 9.42244 12.3404C9.398 12.329 9.37606 12.3127 9.35788 12.2927C9.3397 12.2726 9.32563 12.2491 9.31651 12.2235C9.30738 12.1979 9.30336 12.1708 9.30469 12.1436C9.30602 12.1165 9.31267 12.0899 9.32426 12.0653C9.33584 12.0408 9.35213 12.0188 9.37218 12.0006L9.87687 11.5358C9.91691 11.4992 9.96972 11.48 10.0237 11.4826C10.0778 11.4851 10.1286 11.5092 10.165 11.5495C10.2015 11.5897 10.2206 11.643 10.2182 11.6975C10.2158 11.7519 10.1921 11.8032 10.1522 11.8401ZM7.64957 10.3427L8.54687 9.53064C8.58713 9.49416 8.6401 9.4753 8.69414 9.47822C8.74818 9.48113 8.79886 9.50557 8.83503 9.54617C8.8712 9.58676 8.88989 9.64019 8.88701 9.69469C8.88412 9.74918 8.85988 9.80029 8.81963 9.83677L7.92195 10.6493C7.90199 10.6673 7.87871 10.6812 7.85343 10.6901C7.82815 10.6991 7.80136 10.703 7.77461 10.7015C7.74785 10.7 7.72164 10.6932 7.69748 10.6815C7.67332 10.6698 7.65168 10.6535 7.6338 10.6333C7.61591 10.6132 7.60213 10.5897 7.59325 10.5642C7.58436 10.5387 7.58054 10.5117 7.582 10.4848C7.58347 10.4578 7.59019 10.4313 7.60178 10.407C7.61337 10.3826 7.62961 10.3608 7.64957 10.3427ZM14.7582 19.7419C14.7549 19.7564 14.753 19.7712 14.7523 19.786C14.7404 20.0402 14.1541 20.3631 13.2935 20.5899C12.2738 20.8586 10.9185 21.0068 9.47683 21.0068C8.02883 21.0068 6.6684 20.8575 5.64715 20.5866C4.65447 20.3231 4.20582 19.9926 4.20174 19.7819C4.20132 19.7712 4.20033 19.7604 4.19877 19.7497C4.17094 19.5679 3.91562 18.0604 2.98529 16.9148C3.15599 16.8457 3.31713 16.7546 3.46474 16.6439C3.51773 16.6036 3.58228 16.5819 3.64862 16.5819C3.71497 16.5819 3.77951 16.6036 3.8325 16.6439C4.20053 16.9202 4.6471 17.0694 5.10591 17.0694C5.56471 17.0694 6.01128 16.9202 6.37931 16.6439C6.4323 16.6036 6.49685 16.5819 6.56319 16.5819C6.62954 16.5819 6.69408 16.6036 6.74707 16.6439C7.1151 16.9202 7.56167 17.0694 8.02048 17.0694C8.47928 17.0694 8.92585 16.9202 9.29388 16.6439C9.34688 16.6036 9.41142 16.5819 9.47776 16.5819C9.54411 16.5819 9.60865 16.6036 9.66164 16.6439C10.0297 16.9202 10.4762 17.0694 10.935 17.0694C11.3939 17.0694 11.8404 16.9202 12.2085 16.6439C12.2614 16.6036 12.326 16.5819 12.3923 16.5819C12.4587 16.5819 12.5232 16.6036 12.5762 16.6439C12.9442 16.9202 13.3908 17.0694 13.8496 17.0694C14.3084 17.0694 14.755 16.9202 15.123 16.6439C15.176 16.6036 15.2406 16.5819 15.3069 16.5819C15.3732 16.5819 15.4378 16.6036 15.4908 16.6439C15.6385 16.7546 15.7998 16.8457 15.9706 16.9148C15.0451 18.0529 14.7902 19.5353 14.7582 19.7419Z" fill="#F48E28"/>
<path d="M9.00945 5.87097C8.91681 5.87097 8.82797 5.83439 8.76246 5.76927C8.69696 5.70415 8.66016 5.61582 8.66016 5.52373C8.66016 4.92906 9.03611 4.61952 9.31059 4.39351C9.57176 4.17846 9.70804 4.05437 9.70804 3.79816C9.70804 3.54195 9.57176 3.41786 9.31059 3.20281C9.0361 2.97683 8.66016 2.66726 8.66016 2.07259C8.66016 1.47792 9.03611 1.16848 9.31059 0.942472C9.57175 0.727484 9.70804 0.603375 9.70804 0.347239C9.70804 0.255146 9.74484 0.166824 9.81034 0.101704C9.87585 0.0365841 9.96469 0 10.0573 0C10.15 0 10.2388 0.0365841 10.3043 0.101704C10.3698 0.166824 10.4066 0.255146 10.4066 0.347239C10.4066 0.941853 10.0307 1.25134 9.75619 1.47735C9.495 1.69234 9.35874 1.81647 9.35874 2.07259C9.35874 2.3287 9.49501 2.45289 9.75619 2.66793C10.0307 2.89395 10.4066 3.20349 10.4066 3.79816C10.4066 4.39283 10.0307 4.70237 9.75619 4.92838C9.49501 5.14343 9.35874 5.26752 9.35874 5.52373C9.35874 5.61582 9.32194 5.70415 9.25644 5.76927C9.19093 5.83439 9.10209 5.87097 9.00945 5.87097Z" fill="#F48E28"/>
<path d="M11.3415 5.87097C11.2488 5.87097 11.16 5.83439 11.0945 5.76927C11.029 5.70415 10.9922 5.61582 10.9922 5.52373C10.9922 4.92906 11.3682 4.61952 11.6426 4.39351C11.9038 4.17846 12.0401 4.05437 12.0401 3.79816C12.0401 3.54195 11.9038 3.41786 11.6426 3.20281C11.3682 2.9768 10.9922 2.66726 10.9922 2.07259C10.9922 1.47792 11.3682 1.16848 11.6426 0.942472C11.9038 0.727484 12.0401 0.603375 12.0401 0.347239C12.0401 0.255146 12.0769 0.166824 12.1424 0.101704C12.2079 0.0365841 12.2967 0 12.3894 0C12.482 0 12.5708 0.0365841 12.6363 0.101704C12.7019 0.166824 12.7387 0.255146 12.7387 0.347239C12.7387 0.941853 12.3627 1.25134 12.0882 1.47735C11.827 1.69234 11.6908 1.81645 11.6908 2.07259C11.6908 2.32872 11.827 2.45289 12.0882 2.66793C12.3627 2.89395 12.7387 3.20349 12.7387 3.79816C12.7387 4.39283 12.3627 4.70237 12.0882 4.92838C11.827 5.14343 11.6908 5.26752 11.6908 5.52373C11.6908 5.61582 11.654 5.70414 11.5885 5.76926C11.523 5.83438 11.4341 5.87097 11.3415 5.87097Z" fill="#F48E28"/>
<path d="M6.68132 5.87097C6.58869 5.87097 6.49984 5.83439 6.43434 5.76927C6.36883 5.70415 6.33203 5.61582 6.33203 5.52373C6.33203 4.92906 6.70799 4.61952 6.98247 4.39351C7.24364 4.17846 7.37991 4.05437 7.37991 3.79816C7.37991 3.54195 7.24364 3.41786 6.98247 3.20281C6.70799 2.9768 6.33203 2.66726 6.33203 2.07259C6.33203 1.47792 6.70799 1.16848 6.98247 0.942472C7.24364 0.727484 7.37991 0.603375 7.37991 0.347239C7.37991 0.255146 7.41671 0.166824 7.48222 0.101704C7.54772 0.0365841 7.63657 0 7.7292 0C7.82184 0 7.91069 0.0365841 7.97619 0.101704C8.0417 0.166824 8.0785 0.255146 8.0785 0.347239C8.0785 0.941853 7.70254 1.25134 7.42807 1.47735C7.16689 1.69234 7.03062 1.81645 7.03062 2.07259C7.03062 2.32872 7.16689 2.45289 7.42807 2.66793C7.70254 2.89395 8.0785 3.20349 8.0785 3.79816C8.0785 4.39283 7.70254 4.70237 7.42807 4.92838C7.16689 5.14343 7.03062 5.26752 7.03062 5.52373C7.03062 5.61582 6.99382 5.70415 6.92831 5.76927C6.86281 5.83439 6.77396 5.87097 6.68132 5.87097Z" fill="#F48E28"/>
</svg>
