<svg width="83" height="75" viewBox="0 0 83 75" fill="none" xmlns="http://www.w3.org/2000/svg">
<g clip-path="url(#clip0_791_507)">
<path d="M24.2077 75.0019C28.0276 75.0019 31.1243 72.2037 31.1243 68.7519C31.1243 65.3002 28.0276 62.502 24.2077 62.502C20.3877 62.502 17.291 65.3002 17.291 68.7519C17.291 72.2037 20.3877 75.0019 24.2077 75.0019Z" fill="#F48E28"/>
<path d="M58.7917 75.0019C62.6116 75.0019 65.7083 72.2037 65.7083 68.7519C65.7083 65.3002 62.6116 62.502 58.7917 62.502C54.9717 62.502 51.875 65.3002 51.875 68.7519C51.875 72.2037 54.9717 75.0019 58.7917 75.0019Z" fill="#F48E28"/>
<path d="M81.9107 4.17314C81.2622 3.58729 80.3827 3.25818 79.4657 3.25818C78.5487 3.25818 77.6692 3.58729 77.0206 4.17314L59.1791 20.3106L53.8152 15.2513C53.5005 14.9554 53.1244 14.7184 52.7083 14.5539C52.2922 14.3893 51.8443 14.3005 51.3902 14.2924C50.9362 14.2842 50.4847 14.357 50.0618 14.5065C49.6388 14.656 49.2526 14.8794 48.9251 15.1638C48.5977 15.4482 48.3355 15.788 48.1534 16.164C47.9713 16.54 47.873 16.9447 47.864 17.355C47.8458 18.1837 48.1927 18.9849 48.8283 19.5825L54.4101 24.8294C55.0048 25.4099 55.7237 25.8753 56.5232 26.1976C57.3227 26.5199 58.1862 26.6923 59.0615 26.7044H59.1756C60.0335 26.7069 60.8834 26.5555 61.6759 26.2588C62.4685 25.9622 63.1879 25.5262 63.7925 24.9763L81.9107 8.59189C82.5591 8.00586 82.9233 7.21115 82.9233 6.38251C82.9233 5.55387 82.5591 4.75916 81.9107 4.17314Z" fill="#F48E28"/>
<path d="M75.7375 28.175C75.2904 28.102 74.8317 28.1093 74.3877 28.1966C73.9437 28.2838 73.5231 28.4493 73.1499 28.6835C72.7767 28.9177 72.4582 29.216 72.2127 29.5615C71.9672 29.907 71.7994 30.2928 71.7189 30.6969L71.2763 32.9125C70.8448 35.076 69.5857 37.0337 67.719 38.4435C65.8523 39.8532 63.4966 40.6254 61.0638 40.625H18.7373L15.4864 15.625H38.0417C38.9589 15.625 39.8385 15.2958 40.4871 14.7097C41.1356 14.1237 41.5 13.3288 41.5 12.5C41.5 11.6712 41.1356 10.8763 40.4871 10.2903C39.8385 9.70424 38.9589 9.375 38.0417 9.375H14.6702L14.525 8.275C14.227 5.99562 13.0139 3.89423 11.1157 2.36908C9.21755 0.84392 6.76614 0.000977614 4.22608 0L3.45833 0C2.54113 0 1.66149 0.32924 1.01292 0.915291C0.364359 1.50134 0 2.2962 0 3.125C0 3.9538 0.364359 4.74866 1.01292 5.33471C1.66149 5.92076 2.54113 6.25 3.45833 6.25H4.22608C5.07314 6.2501 5.89071 6.53111 6.5237 7.03974C7.1567 7.54836 7.5611 8.24922 7.66021 9.00937L12.4189 45.5719C12.9129 49.3743 14.9347 52.8806 18.1006 55.425C21.2665 57.9695 25.356 59.3751 29.593 59.375H65.7083C66.6255 59.375 67.5052 59.0458 68.1537 58.4597C68.8023 57.8737 69.1667 57.0788 69.1667 56.25C69.1667 55.4212 68.8023 54.6263 68.1537 54.0403C67.5052 53.4542 66.6255 53.125 65.7083 53.125H29.593C27.4471 53.1254 25.354 52.5245 23.6018 51.4052C21.8496 50.2858 20.5246 48.7031 19.8093 46.875H61.0638C65.118 46.8752 69.0433 45.5882 72.1541 43.2389C75.2648 40.8895 77.363 37.6272 78.0822 34.0219L78.5249 31.8031C78.6871 30.9881 78.4847 30.1481 77.9621 29.4679C77.4394 28.7876 76.6393 28.3226 75.7375 28.175Z" fill="#F48E28"/>
</g>
<defs>
<clipPath id="clip0_791_507">
<rect width="83" height="75" fill="white"/>
</clipPath>
</defs>
</svg>
