<svg width="82" height="75" viewBox="0 0 82 75" fill="none" xmlns="http://www.w3.org/2000/svg">
<g clip-path="url(#clip0_791_504)">
<path d="M30.75 74.998H3.41667C2.51051 74.998 1.64147 74.6688 1.00072 74.0827C0.359969 73.4967 0 72.7018 0 71.873C0 71.0442 0.359969 70.2494 1.00072 69.6633C1.64147 69.0773 2.51051 68.748 3.41667 68.748H30.75C31.6562 68.748 32.5252 69.0773 33.1659 69.6633C33.8067 70.2494 34.1667 71.0442 34.1667 71.873C34.1667 72.7018 33.8067 73.4967 33.1659 74.0827C32.5252 74.6688 31.6562 74.998 30.75 74.998Z" fill="#F48E28"/>
<path d="M23.9167 62.5H3.41667C2.51051 62.5 1.64147 62.1708 1.00072 61.5847C0.359969 60.9987 0 60.2038 0 59.375C0 58.5462 0.359969 57.7513 1.00072 57.1653C1.64147 56.5792 2.51051 56.25 3.41667 56.25H23.9167C24.8228 56.25 25.6919 56.5792 26.3326 57.1653C26.9734 57.7513 27.3333 58.5462 27.3333 59.375C27.3333 60.2038 26.9734 60.9987 26.3326 61.5847C25.6919 62.1708 24.8228 62.5 23.9167 62.5Z" fill="#F48E28"/>
<path d="M17.0833 50.002H3.41667C2.51051 50.002 1.64147 49.6727 1.00072 49.0867C0.359969 48.5006 0 47.7058 0 46.877C0 46.0482 0.359969 45.2533 1.00072 44.6673C1.64147 44.0812 2.51051 43.752 3.41667 43.752H17.0833C17.9895 43.752 18.8585 44.0812 19.4993 44.6673C20.14 45.2533 20.5 46.0482 20.5 46.877C20.5 47.7058 20.14 48.5006 19.4993 49.0867C18.8585 49.6727 17.9895 50.002 17.0833 50.002Z" fill="#F48E28"/>
<path d="M44.4174 74.858C43.5112 74.8949 42.6262 74.601 41.9569 74.041C41.2876 73.4811 40.889 72.7009 40.8487 71.8721C40.8083 71.0433 41.1296 70.2337 41.7419 69.6216C42.3541 69.0095 43.2071 68.6449 44.1133 68.608C50.5792 68.0669 56.7426 65.8518 61.8817 62.2223C67.0209 58.5928 70.9229 53.6991 73.1307 48.1143C75.3386 42.5296 75.7609 36.485 74.3482 30.6886C72.9355 24.8923 69.7462 19.5841 65.154 15.3858C60.5617 11.1875 54.7567 8.27298 48.4187 6.98352C42.0807 5.69407 35.4722 6.0831 29.3672 8.10506C23.2622 10.127 17.9136 13.6982 13.9477 18.4003C9.98175 23.1024 7.56281 28.7407 6.97416 34.6549C6.89261 35.4804 6.45587 36.2424 5.76001 36.7734C5.06416 37.3043 4.1662 37.5607 3.26367 37.4861C2.36114 37.4115 1.52797 37.0121 0.94745 36.3756C0.366932 35.7392 0.0866172 34.9179 0.168171 34.0924C1.12104 24.4777 6.09131 15.5696 14.0444 9.22226C21.9974 2.87497 32.3205 -0.42243 42.8647 0.0164691C53.4089 0.455368 63.3618 4.59674 70.6516 11.5785C77.9415 18.5603 82.0065 27.8445 82.0007 37.4986C82.053 46.8684 78.2472 55.913 71.3403 62.833C64.4334 69.7531 54.9316 74.0416 44.7249 74.8455C44.6224 74.8549 44.5164 74.858 44.4174 74.858Z" fill="#F48E28"/>
<path d="M41.0007 18.75C40.0945 18.75 39.2255 19.0792 38.5847 19.6653C37.944 20.2513 37.584 21.0462 37.584 21.875V37.5C37.5842 38.3287 37.9443 39.1235 38.5851 39.7094L48.8351 49.0844C49.4795 49.6536 50.3425 49.9686 51.2384 49.9615C52.1342 49.9544 52.9911 49.6257 53.6246 49.0463C54.2581 48.4669 54.6174 47.6831 54.6252 46.8638C54.633 46.0444 54.2886 45.255 53.6662 44.6656L44.4173 36.2063V21.875C44.4173 21.0462 44.0573 20.2513 43.4166 19.6653C42.7758 19.0792 41.9068 18.75 41.0007 18.75Z" fill="#F48E28"/>
</g>
<defs>
<clipPath id="clip0_791_504">
<rect width="82" height="75" fill="white"/>
</clipPath>
</defs>
</svg>
